<?xml version="1.0" encoding="UTF-8"?>
<svg
  xmlns="http://www.w3.org/2000/svg"
  viewBox="0 0 420 140"
  width="420"
  height="140">

  <!-- ------------- Embedded CSS ------------- -->
  <style>
    @import url('https://fonts.googleapis.com/css2?family=Bagel+Fat+One&display=swap');

    /* cycle faces – 1.5 s each → 7.5 s loop */
    .face { opacity: 0; animation: cycle 7.5s linear infinite; }
    .face-1 { animation-delay: 0s;   }
    .face-2 { animation-delay: 1.5s; }
    .face-3 { animation-delay: 3s;   }
    .face-4 { animation-delay: 4.5s; }
    .face-5 { animation-delay: 6s;   }

    @keyframes cycle {
      0%, 6.67%     { opacity: 0; }
      6.68%, 26.67% { opacity: 1; }   /* visible ≈20 % */
      26.68%, 100%  { opacity: 0; }
    }

    .stroke { stroke:#fff; }
    .fill   { fill:#fff; }
    .mark   { fill:#fff; font-family:'Bagel Fat One',sans-serif; letter-spacing:8px; }
  </style>

  <!-- ------------- Icon block ------------- -->
  <g>
    <rect x="10" y="10" width="120" height="120" rx="20" ry="20"
          class="stroke" stroke-width="10" fill="none"/>

    <!-- 😉 -->
    <g class="face face-1">
      <text x="35" y="55" font-size="28" class="fill" font-family="Arial">&gt;</text>
      <circle cx="90" cy="50" r="6" class="fill"/>
      <path d="M36 96 Q60 116 84 96" class="stroke" stroke-width="6" fill="none"/>
    </g>

    <!-- 😒 -->
    <g class="face face-2">
      <circle cx="40" cy="50" r="6" class="fill"/>
      <circle cx="90" cy="50" r="6" class="fill"/>
      <path d="M36 88 Q60 82 84 88" class="stroke" stroke-width="5" fill="none"/>
    </g>

    <!-- 😎 -->
    <g class="face face-3">
      <rect x="32" y="43" width="24" height="12" class="fill"/>
      <rect x="78" y="43" width="24" height="12" class="fill"/>
      <line x1="56" y1="49" x2="78" y2="49" class="stroke" stroke-width="4"/>
      <path d="M36 96 Q60 116 84 96" class="stroke" stroke-width="6" fill="none"/>
    </g>

    <!-- 😲 -->
    <g class="face face-4">
      <circle cx="40" cy="50" r="6" class="fill"/>
      <circle cx="90" cy="50" r="6" class="fill"/>
      <circle cx="63" cy="96" r="8" class="fill"/>
    </g>

    <!-- 😂 -->
    <g class="face face-5">
      <path d="M30 50 Q35 40 40 50" class="stroke" stroke-width="4" fill="none"/>
      <path d="M86 50 Q91 40 96 50" class="stroke" stroke-width="4" fill="none"/>
      <path d="M36 88 Q60 110 84 88" class="stroke" stroke-width="6" fill="none"/>
      <circle cx="28" cy="82" r="4" class="fill"/>
      <circle cx="98" cy="82" r="4" class="fill"/>
    </g>
  </g>

  <!-- ------------- Word-mark ------------- -->
  <text x="160" y="105" font-size="110" class="mark">MINICON</text>
</svg>
